<svg xmlns="http://www.w3.org/2000/svg" fill="none" viewBox="0 0 512 512"><path fill="#795649" d="M0 256C0 114.611 114.611 0 256 0s256 114.611 256 256-114.611 256-256 256S0 397.389 0 256Z"/><path fill="#fff" d="M203.571 108.805c-11.008 0-21.299 0-29.696 1.255-9.497 1.408-19.251 4.761-27.059 13.44-7.526 8.371-10.189 18.355-11.341 27.878-1.075 8.909-1.075 19.968-1.075 32.435v14.592c0 5.092 2.023 9.976 5.624 13.577 3.6 3.6 8.484 5.623 13.576 5.623 5.092 0 9.976-2.023 13.576-5.623 3.601-3.601 5.624-8.485 5.624-13.577v-13.517c0-13.9.026-22.579.794-28.902.179-1.916.574-3.805 1.177-5.632.09-.437.293-.843.589-1.178 0-.034.12-.102.307-.204 1.25-.485 2.559-.803 3.891-.948 5.223-.768 12.57-.819 25.242-.819h32v217.6H192c-5.092 0-9.976 2.023-13.576 5.624-3.601 3.6-5.624 8.484-5.624 13.576 0 5.092 2.023 9.976 5.624 13.577 3.6 3.6 8.484 5.623 13.576 5.623h140.8c5.092 0 9.976-2.023 13.576-5.623 3.601-3.601 5.624-8.485 5.624-13.577 0-5.092-2.023-9.976-5.624-13.576-3.6-3.601-8.484-5.624-13.576-5.624h-57.6v-217.6h32c12.672 0 20.019.051 25.242.819 2.355.359 3.456.768 3.891.948l.281.179c.301.324.513.747.615 1.177.358.973.819 2.688 1.177 5.658.768 6.323.794 15.002.794 28.928v13.491c0 5.092 2.023 9.976 5.624 13.577 3.6 3.6 8.484 5.623 13.576 5.623 5.092 0 9.976-2.023 13.577-5.623 3.6-3.601 5.623-8.485 5.623-13.577v-14.592c0-12.493 0-23.526-1.075-32.435-1.152-9.523-3.815-19.507-11.341-27.904-7.808-8.653-17.562-12.006-27.059-13.414-8.397-1.28-18.688-1.28-29.696-1.255H203.571Z"/></svg>