<svg xmlns="http://www.w3.org/2000/svg" fill="none" viewBox="0 0 512 512"><rect width="512" height="512" fill="#7E56C2" rx="256"/><path fill="#fff" d="m168.616 299.509-12 33.375c-1 2.75-2.625 4.875-4.875 6.375s-4.75 2.25-7.5 2.25c-4.75 0-8.435-1.935-11.055-5.805-2.62-3.87-3.06-7.935-1.32-12.195l51.75-138c1-2.75 2.69-4.94 5.07-6.57 2.38-1.63 4.94-2.44 7.68-2.43h10.5c2.75 0 5.375.815 7.875 2.445s4.25 3.815 5.25 6.555l51.75 138.375c1.75 4.25 1.25 8.25-1.5 12s-6.375 5.625-10.875 5.625c-2.75 0-5.25-.81-7.5-2.43s-3.875-3.81-4.875-6.57l-11.625-33h-66.75Zm8.625-24h49.125l-24-68.25h-1.5l-23.625 68.25Zm148.125 69.75c-12.75 0-22.875-3.435-30.375-10.305-7.5-6.87-11.25-15.935-11.25-27.195 0-11 4.315-20.06 12.945-27.18 8.63-7.12 19.69-10.685 33.18-10.695 5.75 0 11.375.5 16.875 1.5s10.25 2.375 14.25 4.125v-4.5c0-7.25-2.565-13.125-7.695-17.625-5.13-4.5-11.94-6.75-20.43-6.75-3.75 0-7.435.565-11.055 1.695-3.62 1.13-6.935 2.815-9.945 5.055-3.25 2.5-6.31 3.375-9.18 2.625s-5.185-2.125-6.945-4.125c-1.76-2-2.635-4.375-2.625-7.125.01-2.75 1.385-5.125 4.125-7.125 5-4 10.625-6.935 16.875-8.805s12.625-2.81 19.125-2.82c17.25 0 30.125 4.065 38.625 12.195 8.5 8.13 12.75 20.315 12.75 36.555v55.125c0 3.25-1.19 6-3.57 8.25s-5.19 3.375-8.43 3.375c-3.24 0-5.99-1.185-8.25-3.555s-3.385-5.185-3.375-8.445v-1.875h-1.5c-3.5 5.75-8.25 10.125-14.25 13.125s-12.625 4.5-19.875 4.5Zm4.5-20.25c8.75 0 16.185-3 22.305-9 6.12-6 9.185-13 9.195-21-3.5-2-7.685-3.56-12.555-4.68-4.87-1.12-9.685-1.685-14.445-1.695-8 0-14.25 1.75-18.75 5.25s-6.75 8.125-6.75 13.875c0 5 2 9.125 6 12.375s9 4.875 15 4.875Z"/></svg>